<svg width="28" height="18" viewBox="0 0 28 18" fill="none" xmlns="http://www.w3.org/2000/svg">
<mask id="mask0_3_134" style="mask-type:alpha" maskUnits="userSpaceOnUse" x="5" y="0" width="18" height="18">
<rect x="5" width="18" height="18" fill="#D9D9D9"/>
</mask>
<g mask="url(#mask0_3_134)">
<path d="M12.95 12.15L18.2375 6.8625L17.1875 5.8125L12.95 10.05L10.8125 7.9125L9.7625 8.9625L12.95 12.15ZM8.75 15.75C8.3375 15.75 7.98438 15.6031 7.69063 15.3094C7.39688 15.0156 7.25 14.6625 7.25 14.25V3.75C7.25 3.3375 7.39688 2.98438 7.69063 2.69063C7.98438 2.39688 8.3375 2.25 8.75 2.25H19.25C19.6625 2.25 20.0156 2.39688 20.3094 2.69063C20.6031 2.98438 20.75 3.3375 20.75 3.75V14.25C20.75 14.6625 20.6031 15.0156 20.3094 15.3094C20.0156 15.6031 19.6625 15.75 19.25 15.75H8.75ZM8.75 14.25H19.25V3.75H8.75V14.25Z" fill="#1C1B1F"/>
</g>
</svg>
